<svg width="18" height="18" viewBox="0 0 18 18" fill="none" xmlns="http://www.w3.org/2000/svg">
<path d="M3.67717 16.5723L11.3272 9.37234L14.9272 12.9723M3.67717 16.5723H12.6772C14.1683 16.5723 15.3772 15.3635 15.3772 13.8723V9.37234M3.67717 16.5723C2.186 16.5723 0.977173 15.3635 0.977173 13.8723V4.87234C0.977173 3.38117 2.186 2.17234 3.67717 2.17234H9.52717M14.4772 6.51793L14.4772 3.97234M14.4772 3.97234L14.4772 1.42676M14.4772 3.97234L11.9316 3.97234M14.4772 3.97234L17.0228 3.97234M6.37717 6.22234C6.37717 6.96793 5.77276 7.57234 5.02717 7.57234C4.28159 7.57234 3.67717 6.96793 3.67717 6.22234C3.67717 5.47676 4.28159 4.87234 5.02717 4.87234C5.77276 4.87234 6.37717 5.47676 6.37717 6.22234Z" stroke="#0EC243" stroke-width="1.6" stroke-linecap="round" stroke-linejoin="round"/>
</svg>
