<svg width="22" height="20" viewBox="0 0 22 20" fill="none" xmlns="http://www.w3.org/2000/svg">
<path d="M15.0253 18.5703L15.0256 15.3566C15.0258 13.5814 13.5867 12.1422 11.8115 12.1422H4.61432C2.83939 12.1422 1.40046 13.581 1.40026 15.3559L1.3999 18.5703M20.5996 18.5705L20.5999 15.3567C20.6001 13.5816 19.161 12.1424 17.3858 12.1424M14.4062 2.06012C15.1955 2.64576 15.7071 3.58461 15.7071 4.64294C15.7071 5.70127 15.1955 6.64013 14.4062 7.22577M11.4937 4.64277C11.4937 6.41784 10.0547 7.85682 8.27964 7.85682C6.50457 7.85682 5.06559 6.41784 5.06559 4.64277C5.06559 2.86769 6.50457 1.42871 8.27964 1.42871C10.0547 1.42871 11.4937 2.86769 11.4937 4.64277Z" stroke="#0EC243" stroke-width="1.6" stroke-linecap="round" stroke-linejoin="round"/>
</svg>
