<svg width="18" height="18" viewBox="0 0 18 18" fill="none" xmlns="http://www.w3.org/2000/svg">
<path d="M8.28643 2.51333H3.78643C2.29526 2.51333 1.08643 3.72216 1.08643 5.21333V14.2134C1.08643 15.7046 2.29526 16.9134 3.78643 16.9134H12.7864C14.2776 16.9134 15.4864 15.7046 15.4864 14.2134L15.4864 9.71337M5.58643 12.4133L8.86091 11.7535C9.03475 11.7185 9.19436 11.6329 9.31971 11.5075L16.65 4.17322C17.0014 3.82158 17.0012 3.25158 16.6494 2.90024L15.0966 1.34918C14.745 0.997981 14.1753 0.99822 13.824 1.34972L6.493 8.68476C6.36789 8.80993 6.28246 8.96922 6.2474 9.1427L5.58643 12.4133Z" stroke="#1B1B1B" stroke-width="1.6" stroke-linecap="round" stroke-linejoin="round"/>
</svg>
