<svg width="20" height="19" viewBox="0 0 20 19" fill="none" xmlns="http://www.w3.org/2000/svg">
<path d="M10.0002 18.975L8.8254 17.925C7.0918 16.3418 5.6584 14.9752 4.5252 13.8252C3.392 12.6752 2.4878 11.646 1.8126 10.7376C1.1378 9.82919 0.667 9.00419 0.4002 8.26259C0.1334 7.52099 0 6.76679 0 5.99999C0 4.48359 0.5126 3.21279 1.5378 2.18759C2.5626 1.16279 3.825 0.650391 5.325 0.650391C6.2586 0.650391 7.1254 0.862791 7.9254 1.28759C8.7254 1.71279 9.417 2.31699 10.0002 3.10019C10.6502 2.28339 11.3668 1.67099 12.15 1.26299C12.9336 0.854591 13.7754 0.650391 14.6754 0.650391C16.1754 0.650391 17.4378 1.16279 18.4626 2.18759C19.4878 3.21279 20.0004 4.48359 20.0004 5.99999C20.0004 6.76679 19.867 7.52099 19.6002 8.26259C19.3334 9.00419 18.8626 9.82919 18.1878 10.7376C17.5126 11.646 16.6084 12.6752 15.4752 13.8252C14.342 14.9752 12.9086 16.3418 11.175 17.925L10.0002 18.975ZM10.0002 16.7754C11.6502 15.2586 13.0126 13.9586 14.0874 12.8754C15.1626 11.7918 16.0126 10.8458 16.6374 10.0374C17.2626 9.22939 17.7002 8.50859 17.9502 7.87499C18.2002 7.24179 18.3252 6.61679 18.3252 5.99999C18.3252 4.93359 17.9836 4.05459 17.3004 3.36299C16.6168 2.67099 15.7418 2.32499 14.6754 2.32499C13.8418 2.32499 13.071 2.57099 12.363 3.06299C11.6546 3.55459 11.1086 4.23359 10.725 5.09999H9.2754C8.8918 4.24999 8.3458 3.57499 7.6374 3.07499C6.9294 2.57499 6.1586 2.32499 5.325 2.32499C4.2586 2.32499 3.3836 2.67099 2.7 3.36299C2.0168 4.05459 1.6752 4.93359 1.6752 5.99999C1.6752 6.63359 1.8002 7.26699 2.0502 7.90019C2.3002 8.53339 2.7378 9.25839 3.363 10.0752C3.9878 10.892 4.8378 11.8378 5.913 12.9126C6.9878 13.9878 8.3502 15.2754 10.0002 16.7754Z" fill="#1B1B1B"/>
</svg>
