<svg width="16" height="16" viewBox="0 0 16 16" fill="none" xmlns="http://www.w3.org/2000/svg">
<path d="M14.4974 13.0782C14.4974 13.0782 13.6284 13.9317 13.4154 14.182C13.0685 14.5522 12.6598 14.727 12.1239 14.727C12.0724 14.727 12.0175 14.727 11.9659 14.7236C10.9458 14.6584 9.99782 14.2608 9.28682 13.9215C7.34274 12.9823 5.63566 11.6489 4.2171 9.95897C3.04584 8.55016 2.26271 7.24762 1.74406 5.84909C1.42463 4.99558 1.30784 4.3306 1.35936 3.70332C1.39371 3.30227 1.54828 2.96978 1.83336 2.68528L3.00462 1.51641C3.17292 1.35873 3.35153 1.27304 3.52671 1.27304C3.7431 1.27304 3.91827 1.4033 4.02818 1.51298C4.03162 1.51641 4.03505 1.51984 4.03849 1.52327C4.24801 1.71865 4.44723 1.92089 4.65675 2.13684C4.76322 2.24652 4.87314 2.35621 4.98305 2.46933L5.92074 3.4051C6.28483 3.76845 6.28483 4.10437 5.92074 4.46771C5.82114 4.56711 5.72496 4.66652 5.62535 4.7625C5.33683 5.05728 5.56348 4.8311 5.26466 5.09846C5.25779 5.10532 5.25092 5.10874 5.24748 5.1156C4.95209 5.41039 5.00705 5.69832 5.06887 5.8937C5.07231 5.90398 5.07574 5.91427 5.07918 5.92455C5.32305 6.51412 5.66652 7.06942 6.18861 7.73098L6.19205 7.7344C7.14004 8.89984 8.13956 9.80819 9.24212 10.504C9.38295 10.5932 9.52721 10.6651 9.6646 10.7337C9.78825 10.7954 9.90503 10.8537 10.0046 10.9154C10.0184 10.9222 10.0321 10.9325 10.0459 10.9394C10.1626 10.9976 10.2726 11.025 10.3859 11.025C10.671 11.025 10.8496 10.8468 10.908 10.7885L11.5812 10.1166C11.698 10.0001 11.8835 9.85957 12.0999 9.85957C12.3129 9.85957 12.488 9.99325 12.5945 10.1098C12.5979 10.1132 12.5979 10.1132 12.6014 10.1166L14.4939 12.0053C14.8477 12.355 14.4974 13.0782 14.4974 13.0782Z" stroke="#1B1B1B" stroke-width="1.6" stroke-linecap="round" stroke-linejoin="round"/>
</svg>
