<svg width="16" height="18" viewBox="0 0 16 18" fill="none" xmlns="http://www.w3.org/2000/svg">
<path d="M0.799805 4.04961H15.1998M6.1998 13.0496V7.64961M9.7998 13.0496V7.64961M11.5998 16.6496H4.3998C3.40569 16.6496 2.5998 15.8437 2.5998 14.8496V4.94961C2.5998 4.45255 3.00275 4.04961 3.4998 4.04961H12.4998C12.9969 4.04961 13.3998 4.45255 13.3998 4.94961V14.8496C13.3998 15.8437 12.5939 16.6496 11.5998 16.6496ZM6.1998 4.04961H9.7998C10.2969 4.04961 10.6998 3.64667 10.6998 3.14961V2.24961C10.6998 1.75255 10.2969 1.34961 9.7998 1.34961H6.1998C5.70275 1.34961 5.2998 1.75255 5.2998 2.24961V3.14961C5.2998 3.64667 5.70275 4.04961 6.1998 4.04961Z" stroke="white" stroke-width="1.6" stroke-linecap="round" stroke-linejoin="round"/>
</svg>
